# xmcd
#
# Track frame offsets:
# 150
# 11265
# 24230
# 36887
# 48675
# 60187
# 72530
# 83800
# 99285
# 115127
# 131830
# 154497
# 173962
# 188587
# 199915
# 213745
# 231012
# 252567
# 265737
#
# Disc length: 3723 seconds
#
# Revision: 1
# Processed by: cddbd v1.5.1PL2 Copyright (c) Steve Scherf et al.
# Submitted via: Axialis_AX_CDPlayer 2.6
#
DISCID=090e8913
DTITLE=T.Bone Walker - Stormy Monday Blues - The Essential Collection
DYEAR=1900
DGENRE=Blues
TTITLE0=Stormy Monday Blues
TTITLE1=Confusion Blues
TTITLE2=Every Night I Have To Cry
TTITLE3=Treat Me So Low Down
TTITLE4=Cold Hearted Woman
TTITLE5=Flower Blues
TTITLE6=I Gotta Break Away
TTITLE7=I'm Gonna Stop This Night Life
TTITLE8=I'm Still In Love With You
TTITLE9=Going To Build Me A Playhouse
TTITLE10=Goin' To Funky Town
TTITLE11=I'm In An Awful Mood
TTITLE12=Jealous Woman
TTITLE13=Long Skirt Baby Blues
TTITLE14=Party Girl
TTITLE15=Struggling Blues
TTITLE16=Little Girl Don't You Know
TTITLE17=Why My Baby (Keep On Bothering Me)
TTITLE18=I Wish My Baby Would (Come Home At Night)
EXTD=
EXTT0=
EXTT1=
EXTT2=
EXTT3=
EXTT4=
EXTT5=
EXTT6=
EXTT7=
EXTT8=
EXTT9=
EXTT10=
EXTT11=
EXTT12=
EXTT13=
EXTT14=
EXTT15=
EXTT16=
EXTT17=
EXTT18=
PLAYORDER=
